<svg xmlns="http://www.w3.org/2000/svg" viewBox="0 0 64 64"><defs><style>.cls-1{fill:#cfd8dd;}.cls-2{fill:#b0bec5;}.cls-3{fill:#37474f;}</style></defs><title>Shopping Cart</title><g id="Layer_2" data-name="Layer 2"><g id="Layer_1-2" data-name="Layer 1"><path class="cls-1" d="M13.87,10,12.13,37.72l4-.53L17.88,10Zm8,0L20.2,36.67l4-.53L25.88,10Zm8,0-1.6,25.62,4-.53L33.88,10Zm8,0L36.33,34.57l4-.53,1.5-24Zm8,0L44.4,33.51l4-.52,1.43-23Zm8,0L52.46,32.46,56,32l.66-2.41L57.88,10Z"/><path class="cls-2" d="M8,40a2,2,0,0,1-.25-4l46.67-5.83,5-18.18H10a2,2,0,0,1,0-4H62a2,2,0,0,1,1.93,2.53l-6,22A2,2,0,0,1,56.25,34l-48,6Z"/><path class="cls-1" d="M52,52H12.52a8,8,0,0,1-8-8.66L7.65,6.17A2,2,0,0,0,5.65,4H2A2,2,0,0,1,2,0H5.65a6,6,0,0,1,6,6.5L8.54,43.67a4,4,0,0,0,4,4.33H52a2,2,0,0,1,0,4Z"/><circle class="cls-3" cx="18" cy="58" r="6"/><circle class="cls-1" cx="18" cy="58" r="2"/><circle class="cls-3" cx="44" cy="58" r="6"/><circle class="cls-1" cx="44" cy="58" r="2"/></g></g></svg>